#Comment line ignore any data following # character 
#Hierarchical Translation and Rotation (.htr) file 
[Header]	
#Header keywords are followed by a single value 
FileType HTR		#Single word string
DataType HTRS		#Translation followed by rotation and scale data
FileVersion 1		#integer
NumSegments 64		#integer
NumFrames 3		#integer
DataFrameRate 30		#integer, data frame rate in this file
EulerRotationOrder ZYX
CalibrationUnits mm
RotationUnits Degrees
GlobalAxisofGravity Y
BoneLengthAxis Y
ScaleFactor 1.00
[SegmentNames&Hierarchy]
#CHILD	PARENT
Pinger_Root GLOBAL
Pelvis Pinger_Root
L_Hip Pelvis
R_Hip Pelvis
Rear_Leg01 Pelvis
Spine1 Pelvis
L_Leg01 L_Hip
L_Leg02 L_Leg01
L_Leg03 L_Leg02
L_Foot L_Leg03
L_Toe1_01 L_Foot
L_Toe2_01 L_Foot
L_Toe3_01 L_Foot
planeAlignerLeft L_Foot
L_Toe1_02 L_Toe1_01
L_Toe1_03 L_Toe1_02
L_Toe2_02 L_Toe2_01
L_Toe2_03 L_Toe2_02
L_Toe3_02 L_Toe3_01
L_Toe3_03 L_Toe3_02
planeLockWeightLeft planeAlignerLeft
R_Leg01 R_Hip
R_Leg02 R_Leg01
R_Leg03 R_Leg02
R_Foot R_Leg03
planeAlignerRight R_Foot
R_Toe1_01 R_Foot
R_Toe2_01 R_Foot
R_Toe3_01 R_Foot
planeLockWeightRight planeAlignerRight
R_Toe1_02 R_Toe1_01
R_Toe1_03 R_Toe1_02
R_Toe2_02 R_Toe2_01
R_Toe2_03 R_Toe2_02
R_Toe3_02 R_Toe3_01
R_Toe3_03 R_Toe3_02
Rear_Leg02 Rear_Leg01
Rear_Leg03 Rear_Leg02
Rear_Leg04 Rear_Leg03
Rear_Foot Rear_Leg04
planeAlignerCenter Rear_Foot
Rear_Toe1_01 Rear_Foot
Rear_Toe2_01 Rear_Foot
Rear_Toe3_01 Rear_Foot
planeLockWeightCenter planeAlignerCenter
Rear_Toe1_02 Rear_Toe1_01
Rear_Toe1_03 Rear_Toe1_02
Rear_Toe2_02 Rear_Toe2_01
Rear_Toe2_03 Rear_Toe2_02
Rear_Toe3_02 Rear_Toe3_01
Rear_Toe3_03 Rear_Toe3_02
Back_Bone Spine1
Head Spine1
Motor_Bone Back_Bone
Ping_Mechanism Back_Bone
BN_LookIK Head
bottomMouth Head
L_Mouth01 Head
L_mouthFront Head
mouthGun Head
R_Mouth01 Head
R_mouthFront Head
TopMouth Head
weapon_bone Head
[BasePosition]
#SegmentName Tx, Ty, Tz, Rx, Ry, Rz, BoneLength
Pinger_Root 0.000000 0.000000 0.000000 -90.000000 0.000000 0.000000 10.000000 
Pelvis 0.000000 0.000000 0.000000 0.000000 0.000000 0.000000 10.000000 
L_Hip 0.000000 0.000000 0.000000 0.000000 0.000000 0.000000 10.000000 
R_Hip 0.000000 0.000000 0.000000 0.000000 0.000000 0.000000 10.000000 
Rear_Leg01 0.000000 0.000000 0.000000 0.000000 0.000000 0.000000 10.000000 
Spine1 0.000000 0.000000 0.000000 0.000000 0.000000 0.000000 10.000000 
L_Leg01 0.000000 0.000000 0.000000 0.000000 0.000000 0.000000 10.000000 
L_Leg02 0.000000 0.000000 0.000000 0.000000 0.000000 0.000000 10.000000 
L_Leg03 0.000000 0.000000 0.000000 0.000000 0.000000 0.000000 10.000000 
L_Foot 0.000000 0.000000 0.000000 0.000000 0.000000 0.000000 10.000000 
L_Toe1_01 0.000000 0.000000 0.000000 0.000000 0.000000 0.000000 10.000000 
L_Toe2_01 0.000000 0.000000 0.000000 0.000000 0.000000 0.000000 10.000000 
L_Toe3_01 0.000000 0.000000 0.000000 0.000000 0.000000 0.000000 10.000000 
planeAlignerLeft 0.000000 0.000000 0.000000 0.000000 0.000000 0.000000 10.000000 
L_Toe1_02 0.000000 0.000000 0.000000 0.000000 0.000000 0.000000 10.000000 
L_Toe1_03 0.000000 0.000000 0.000000 0.000000 0.000000 0.000000 10.000000 
L_Toe2_02 0.000000 0.000000 0.000000 0.000000 0.000000 0.000000 10.000000 
L_Toe2_03 0.000000 0.000000 0.000000 0.000000 0.000000 0.000000 10.000000 
L_Toe3_02 0.000000 0.000000 0.000000 0.000000 0.000000 0.000000 10.000000 
L_Toe3_03 0.000000 0.000000 0.000000 0.000000 0.000000 0.000000 10.000000 
planeLockWeightLeft 0.000000 0.000000 0.000000 0.000000 0.000000 0.000000 10.000000 
R_Leg01 0.000000 0.000000 0.000000 0.000000 0.000000 0.000000 10.000000 
R_Leg02 0.000000 0.000000 0.000000 0.000000 0.000000 0.000000 10.000000 
R_Leg03 0.000000 0.000000 0.000000 0.000000 0.000000 0.000000 10.000000 
R_Foot 0.000000 0.000000 0.000000 0.000000 0.000000 0.000000 10.000000 
planeAlignerRight 0.000000 0.000000 0.000000 0.000000 0.000000 0.000000 10.000000 
R_Toe1_01 0.000000 0.000000 0.000000 0.000000 0.000000 0.000000 10.000000 
R_Toe2_01 0.000000 0.000000 0.000000 0.000000 0.000000 0.000000 10.000000 
R_Toe3_01 0.000000 0.000000 0.000000 0.000000 0.000000 0.000000 10.000000 
planeLockWeightRight 0.000000 0.000000 0.000000 0.000000 0.000000 0.000000 10.000000 
R_Toe1_02 0.000000 0.000000 0.000000 0.000000 0.000000 0.000000 10.000000 
R_Toe1_03 0.000000 0.000000 0.000000 0.000000 0.000000 0.000000 10.000000 
R_Toe2_02 0.000000 0.000000 0.000000 0.000000 0.000000 0.000000 10.000000 
R_Toe2_03 0.000000 0.000000 0.000000 0.000000 0.000000 0.000000 10.000000 
R_Toe3_02 0.000000 0.000000 0.000000 0.000000 0.000000 0.000000 10.000000 
R_Toe3_03 0.000000 0.000000 0.000000 0.000000 0.000000 0.000000 10.000000 
Rear_Leg02 0.000000 0.000000 0.000000 0.000000 0.000000 0.000000 10.000000 
Rear_Leg03 0.000000 0.000000 0.000000 0.000000 0.000000 0.000000 10.000000 
Rear_Leg04 0.000000 0.000000 0.000000 0.000000 0.000000 0.000000 10.000000 
Rear_Foot 0.000000 0.000000 0.000000 0.000000 0.000000 0.000000 10.000000 
planeAlignerCenter 0.000000 0.000000 0.000000 0.000000 0.000000 0.000000 10.000000 
Rear_Toe1_01 0.000000 0.000000 0.000000 0.000000 0.000000 0.000000 10.000000 
Rear_Toe2_01 0.000000 0.000000 0.000000 0.000000 0.000000 0.000000 10.000000 
Rear_Toe3_01 0.000000 0.000000 0.000000 0.000000 0.000000 0.000000 10.000000 
planeLockWeightCenter 0.000000 0.000000 0.000000 0.000000 0.000000 0.000000 10.000000 
Rear_Toe1_02 0.000000 0.000000 0.000000 0.000000 0.000000 0.000000 10.000000 
Rear_Toe1_03 0.000000 0.000000 0.000000 0.000000 0.000000 0.000000 10.000000 
Rear_Toe2_02 0.000000 0.000000 0.000000 0.000000 0.000000 0.000000 10.000000 
Rear_Toe2_03 0.000000 0.000000 0.000000 0.000000 0.000000 0.000000 10.000000 
Rear_Toe3_02 0.000000 0.000000 0.000000 0.000000 0.000000 0.000000 10.000000 
Rear_Toe3_03 0.000000 0.000000 0.000000 0.000000 0.000000 0.000000 10.000000 
Back_Bone 0.000000 0.000000 0.000000 0.000000 0.000000 0.000000 10.000000 
Head 0.000000 0.000000 0.000000 0.000000 0.000000 0.000000 10.000000 
Motor_Bone 0.000000 0.000000 0.000000 0.000000 0.000000 0.000000 10.000000 
Ping_Mechanism 0.000000 0.000000 0.000000 0.000000 0.000000 0.000000 10.000000 
BN_LookIK 0.000000 0.000000 0.000000 0.000000 0.000000 0.000000 10.000000 
bottomMouth 0.000000 0.000000 0.000000 0.000000 0.000000 0.000000 10.000000 
L_Mouth01 0.000000 0.000000 0.000000 0.000000 0.000000 0.000000 10.000000 
L_mouthFront 0.000000 0.000000 0.000000 0.000000 0.000000 0.000000 10.000000 
mouthGun 0.000000 0.000000 0.000000 0.000000 0.000000 0.000000 10.000000 
R_Mouth01 0.000000 0.000000 0.000000 0.000000 0.000000 0.000000 10.000000 
R_mouthFront 0.000000 0.000000 0.000000 0.000000 0.000000 0.000000 10.000000 
TopMouth 0.000000 0.000000 0.000000 0.000000 0.000000 0.000000 10.000000 
weapon_bone 0.000000 0.000000 0.000000 0.000000 0.000000 0.000000 10.000000 
#Beginning of Data. Separated by tabs
#Fr	Tx	Ty	Tz	Rx	Ry	Rz	SF
[Pinger_Root]
170 0.000000 0.000000 0.000000 -0.000075 -0.000000 -0.000020 0.000000
171 0.000000 0.000000 0.000000 -0.000075 -0.000000 -0.000020 0.000000
172 0.000000 0.000000 0.000000 -0.000075 -0.000000 -0.000020 0.000000
[Pelvis]
170 1045.296753 1081.472778 3733.716064 -110.806808 -75.123917 112.539764 4025.278076
171 1052.809937 1077.621338 3758.587402 -111.996582 -75.349815 113.983063 4049.278564
172 1058.967529 1073.819702 3786.691406 -113.286163 -75.648712 115.844940 4075.970215
[L_Hip]
170 5.766392 125.831482 872.656799 -121.855164 -74.309326 30.031721 881.701050
171 5.766392 125.831482 872.656799 -121.855164 -74.309326 30.031721 881.701050
172 5.766392 125.831482 872.656799 -121.855164 -74.309326 30.031721 881.701050
[R_Hip]
170 5.765438 125.836372 -872.654907 -61.886303 72.281258 26.104517 881.699829
171 5.765438 125.836372 -872.654907 -61.888420 72.281532 26.102768 881.699829
172 5.765438 125.836372 -872.654907 -61.890488 72.281776 26.101015 881.699829
[Rear_Leg01]
170 -192.298416 -925.602966 -0.001907 162.372131 -18.357290 -135.851501 945.367432
171 -192.298416 -925.602966 -0.001907 162.352249 -18.806234 -135.699799 945.367432
172 -192.298416 -925.602966 -0.001907 162.512436 -19.537579 -135.522354 945.367432
[Spine1]
170 290.604584 5.007505 0.000477 0.000886 0.763460 11.035003 290.647736
171 290.604584 5.007505 0.000477 0.000699 0.727346 11.554994 290.647736
172 290.604584 5.007505 0.000477 0.001297 0.688019 12.318009 290.647736
[L_Leg01]
170 761.932007 -0.002384 -0.069261 76.123024 -21.723967 -58.473557 761.932068
171 761.932007 -0.002384 -0.069261 76.338234 -21.410465 -57.820244 761.932068
172 761.932007 -0.002384 -0.069261 78.116043 -22.115879 -60.721722 761.932068
[L_Leg02]
170 1441.140503 -0.000954 -0.000715 0.725946 0.136106 -115.404991 1441.140503
171 1441.140503 -0.000954 -0.000715 1.583917 0.217873 -114.858131 1441.140503
172 1441.140503 -0.000954 -0.000715 -2.739550 -0.312269 -114.269150 1441.140503
[L_Leg03]
170 1686.963989 -0.000715 -0.000954 -0.076728 0.041626 131.305420 1686.963989
171 1686.963989 -0.000715 -0.000954 -0.076381 0.040610 131.133942 1686.963989
172 1686.963989 -0.000715 -0.000954 -0.076030 0.039596 130.962326 1686.963989
[L_Foot]
170 3041.570068 -30.715107 11.297464 -18.313303 26.380676 53.334164 3041.746094
171 3041.570068 -30.715107 11.297464 -17.989899 26.189501 53.134930 3041.746094
172 3041.570068 -30.715107 11.297464 -19.975702 26.871248 51.757832 3041.746094
[L_Toe1_01]
170 -188.216690 -224.732346 -21.137953 94.360756 -12.146396 -176.777298 293.899567
171 -188.216690 -224.732346 -21.137953 94.227882 -12.329270 -175.547180 293.899567
172 -188.216690 -224.732346 -21.137953 94.047928 -12.542949 -174.014938 293.899567
[L_Toe2_01]
170 200.746536 -219.926590 148.838394 -88.552719 -33.681480 -50.397190 332.896027
171 200.746536 -219.926590 148.838394 -88.003479 -33.536320 -51.727989 332.896027
172 200.746536 -219.926590 148.838394 -87.459381 -33.380562 -53.054783 332.896027
[L_Toe3_01]
170 188.832520 -219.859131 -191.078659 -97.304131 10.054453 -60.028294 347.140900
171 188.832520 -219.859131 -191.078659 -97.440208 9.566267 -61.464417 347.140900
172 188.832520 -219.859131 -191.078659 -97.584686 8.988915 -63.208954 347.140900
[planeAlignerLeft]
170 0.812531 -811.448792 -0.314951 0.000000 -90.000000 -90.001900 811.449280
171 0.812531 -811.448792 -0.314951 0.000000 -90.000000 -90.001900 811.449280
172 0.812531 -811.448792 -0.314951 0.000000 -90.000000 -90.001900 811.449280
[L_Toe1_02]
170 413.761139 0.000477 0.000000 0.000203 -25.410625 -0.000182 413.761139
171 413.761139 0.000477 0.000000 0.000203 -25.410625 -0.000182 413.761139
172 413.761139 0.000477 0.000000 0.000203 -25.410625 -0.000182 413.761139
[L_Toe1_03]
170 464.317322 0.000358 -0.000089 0.004135 57.019775 0.004135 464.317322
171 464.317322 0.000358 -0.000089 0.003995 55.829865 0.003995 464.317322
172 464.317322 0.000358 -0.000089 0.003832 54.329369 0.003832 464.317322
[L_Toe2_02]
170 342.235809 -0.000477 0.000238 0.001193 -69.126060 0.001193 342.235809
171 342.235809 -0.000477 0.000238 0.001195 -68.371002 0.001195 342.235809
172 342.235809 -0.000477 0.000238 0.001195 -67.411095 0.001198 342.235809
[L_Toe2_03]
170 420.210846 -0.000715 0.000000 0.010933 77.675262 0.010933 420.210846
171 420.210846 -0.000715 0.000000 0.009666 76.052574 0.009666 420.210846
172 420.210846 -0.000715 0.000000 0.008467 74.069305 0.008466 420.210846
[L_Toe3_02]
170 329.270111 0.000954 0.000000 0.001176 -82.668854 0.001176 329.270111
171 329.270111 0.000954 0.000000 0.001176 -82.457893 0.001176 329.270111
172 329.270111 0.000954 0.000000 0.001176 -82.031883 0.001176 329.270111
[L_Toe3_03]
170 439.137451 -0.001907 0.000954 179.990341 67.862244 179.997452 439.137451
171 439.137451 -0.001907 0.000954 -179.998550 69.515564 -179.994995 439.137451
172 439.137451 -0.001907 0.000954 -179.998184 71.514389 -179.994659 439.137451
[planeLockWeightLeft]
170 -0.000954 0.000238 -0.000305 -0.011826 -0.004376 0.005620 0.001029
171 -0.000954 0.000238 -0.000305 -0.011826 -0.004376 0.005620 0.001029
172 -0.000954 0.000238 -0.000305 -0.011826 -0.004376 0.005620 0.001029
[R_Leg01]
170 761.455627 -0.001907 -0.000358 134.741470 -30.701206 92.147743 761.455688
171 761.455627 -0.001907 -0.000358 132.320953 -29.841257 93.779663 761.455688
172 761.455627 -0.001907 -0.000358 130.238770 -28.579941 95.289810 761.455688
[R_Leg02]
170 1441.140625 0.000000 -0.000238 -1.106114 -0.456384 -132.941025 1441.140625
171 1441.140625 0.000000 -0.000238 -1.062966 -0.412825 -130.104080 1441.140625
172 1441.140625 0.000000 -0.000238 -1.020750 -0.365959 -126.980827 1441.140625
[R_Leg03]
170 1686.963989 0.000954 0.001431 0.111830 -0.068856 141.013474 1686.963989
171 1686.963989 0.000954 0.001431 0.108065 -0.066127 140.246552 1686.963989
172 1686.963989 0.000954 0.001431 0.104264 -0.063450 139.479614 1686.963989
[R_Foot]
170 3041.560059 -30.531288 -11.204481 -2.105439 -7.255306 71.450768 3041.734131
171 3041.560059 -30.531288 -11.204481 -2.327932 -9.199555 70.521133 3041.734131
172 3041.560059 -30.531288 -11.204481 -2.385633 -11.140293 69.626503 3041.734131
[planeAlignerRight]
170 -0.635147 -812.270569 -0.364304 0.000000 -89.960434 -90.005180 812.270874
171 -0.635147 -812.270569 -0.364304 0.000000 -89.960434 -90.005180 812.270874
172 -0.635147 -812.270569 -0.364304 0.000000 -89.960434 -90.005180 812.270874
[R_Toe1_01]
170 -188.383347 -224.864899 21.052242 91.603065 -9.747297 -175.831589 294.101532
171 -188.383347 -224.864899 21.052242 91.609497 -9.720069 -175.882523 294.101532
172 -188.383347 -224.864899 21.052242 91.615898 -9.692828 -175.933456 294.101532
[R_Toe2_01]
170 200.637817 -220.002121 -148.787384 -100.391022 19.656366 -60.476109 332.857574
171 200.637817 -220.002121 -148.787384 -100.389946 19.702415 -60.441963 332.857574
172 200.637817 -220.002121 -148.787384 -100.388824 19.748470 -60.407806 332.857574
[R_Toe3_01]
170 188.606735 -220.092957 191.126343 -80.427147 -24.870342 -64.373566 347.192566
171 188.606735 -220.092957 191.126343 -80.444420 -24.872143 -64.317482 347.192566
172 188.606735 -220.092957 191.126343 -80.486908 -24.877541 -64.181885 347.192566
[planeLockWeightRight]
170 -0.000477 0.000000 0.000000 -0.011823 -0.004379 -0.000027 0.000477
171 -0.000477 0.000000 0.000000 -0.011823 -0.004379 -0.000027 0.000477
172 -0.000477 0.000000 0.000000 -0.011823 -0.004379 -0.000027 0.000477
[R_Toe1_02]
170 413.762085 0.000477 -0.000119 0.001388 -25.496891 0.001388 413.762085
171 413.762085 0.000477 -0.000119 0.001388 -25.498518 0.001388 413.762085
172 413.762085 0.000477 -0.000119 0.001388 -25.500147 0.001388 413.762085
[R_Toe1_03]
170 464.317810 0.000000 0.001088 0.005036 63.049572 0.005036 464.317810
171 464.317810 0.000000 0.001088 0.005035 63.044342 0.005035 464.317810
172 464.317810 0.000000 0.001088 0.005035 63.039124 0.005035 464.317810
[R_Toe2_02]
170 342.234741 -0.000954 0.000238 0.001205 -63.776272 0.001205 342.234741
171 342.234741 -0.000954 0.000238 0.001205 -63.845154 0.001205 342.234741
172 342.234741 -0.000954 0.000238 0.001205 -63.984352 0.001205 342.234741
[R_Toe2_03]
170 420.210846 0.000715 -0.000268 -0.004679 67.101418 -0.001112 420.210846
171 420.210846 0.000715 -0.000268 -0.004708 67.333466 -0.001142 420.210846
172 420.210846 0.000715 -0.000268 -0.004737 67.565567 -0.001172 420.210846
[R_Toe3_02]
170 329.270355 -0.000477 -0.000954 0.001188 -72.377510 0.001188 329.270355
171 329.270355 -0.000477 -0.000954 0.001187 -72.540688 0.001187 329.270355
172 329.270355 -0.000477 -0.000954 0.001187 -72.703835 0.001187 329.270355
[R_Toe3_03]
170 439.137939 0.000238 0.001431 0.011661 78.447250 0.011661 439.137939
171 439.137939 0.000238 0.001431 0.011950 78.728134 0.011950 439.137939
172 439.137939 0.000238 0.001431 0.012254 79.009056 0.012254 439.137939
[Rear_Leg02]
170 1162.777710 -0.029802 0.005960 -3.051112 7.637645 -91.437035 1162.777710
171 1162.777710 -0.029802 0.005960 -2.936082 7.679827 -90.604042 1162.777710
172 1162.777710 -0.029802 0.005960 -2.820427 7.720345 -89.770821 1162.777710
[Rear_Leg03]
170 607.192505 -0.013351 -0.073195 0.010487 -0.005116 68.360580 607.192505
171 607.192505 -0.013351 -0.073195 0.010496 -0.005098 68.172020 607.192505
172 607.192505 -0.013351 -0.073195 0.010510 -0.005070 67.864120 607.192505
[Rear_Leg04]
170 995.874512 -0.020504 -0.011921 -0.040134 -0.018928 66.863220 995.874573
171 995.874512 -0.020504 -0.011921 -0.040027 -0.019154 66.216698 995.874573
172 995.874512 -0.020504 -0.011921 -0.039918 -0.019379 65.570145 995.874573
[Rear_Foot]
170 3096.176270 -0.067472 -0.041425 155.784241 71.321220 -23.959126 3096.176270
171 3096.176270 -0.067472 -0.041425 155.793121 71.291428 -24.069834 3096.176270
172 3096.176270 -0.067472 -0.041425 155.880646 71.194412 -24.098099 3096.176270
[planeAlignerCenter]
170 0.350077 0.966311 -838.790894 0.000009 0.000003 -179.999985 838.791565
171 0.350077 0.966311 -838.790894 0.000009 0.000003 -179.999985 838.791565
172 0.350077 0.966311 -838.790894 0.000009 0.000003 -179.999985 838.791565
[Rear_Toe1_01]
170 0.653352 83.966492 -371.173737 4.813530 26.640364 103.402611 380.553192
171 0.653352 83.966492 -371.173737 4.813131 26.625320 103.402901 380.553192
172 0.653352 83.966492 -371.173737 4.812733 26.610283 103.403191 380.553192
[Rear_Toe2_01]
170 178.200760 -294.826019 -362.060547 -8.543451 19.573347 -73.240067 499.765686
171 178.200760 -294.826019 -362.060547 -8.543069 19.567116 -73.243660 499.765686
172 178.200760 -294.826019 -362.060547 -8.542687 19.560890 -73.247253 499.765686
[Rear_Toe3_01]
170 -153.359680 -308.780914 -362.060852 4.376476 16.983246 -119.486649 499.952881
171 -153.359680 -308.780914 -362.060852 4.377517 16.968506 -119.483208 499.952881
172 -153.359680 -308.780914 -362.060852 4.378554 16.953762 -119.479759 499.952881
[planeLockWeightCenter]
170 -0.000062 0.000238 0.000000 -0.011814 -0.004373 -0.000015 0.000246
171 -0.000062 0.000238 0.000000 -0.011814 -0.004373 -0.000015 0.000246
172 -0.000062 0.000238 0.000000 -0.011814 -0.004373 -0.000015 0.000246
[Rear_Toe1_02]
170 379.707825 0.194073 0.000477 0.001333 -33.396416 0.001333 379.707855
171 379.707825 0.194073 0.000477 0.001333 -33.401447 0.001333 379.707855
172 379.707825 0.194073 0.000477 0.001333 -33.406464 0.001333 379.707855
[Rear_Toe1_03]
170 500.129700 0.165701 0.000119 -0.004482 65.344475 -0.000902 500.129761
171 500.129700 0.165701 0.000119 -0.004484 65.370033 -0.000905 500.129761
172 500.129700 0.165701 0.000119 -0.004487 65.395645 -0.000908 500.129761
[Rear_Toe2_02]
170 340.494507 0.000238 -0.000954 0.001179 -79.522270 0.001179 340.494507
171 340.494507 0.000238 -0.000954 0.001179 -79.507896 0.001179 340.494507
172 340.494507 0.000238 -0.000954 0.001179 -79.493484 0.001179 340.494507
[Rear_Toe2_03]
170 433.103577 0.000000 0.000238 0.040895 86.710793 0.040895 433.103546
171 433.103577 0.000000 0.000238 0.040595 86.686661 0.040595 433.103546
172 433.103577 0.000000 0.000238 0.040299 86.662346 0.040299 433.103546
[Rear_Toe3_02]
170 340.494141 -0.000358 -0.000477 -0.002464 -51.039669 -0.002464 340.494171
171 340.494141 -0.000358 -0.000477 -0.002464 -51.015617 -0.002464 340.494171
172 340.494141 -0.000358 -0.000477 -0.002464 -50.991554 -0.002464 340.494171
[Rear_Toe3_03]
170 433.103577 0.001431 -0.000238 0.000372 45.469231 -0.003406 433.103546
171 433.103577 0.001431 -0.000238 0.000373 45.442413 -0.003405 433.103546
172 433.103577 0.001431 -0.000238 0.000374 45.415604 -0.003405 433.103546
[Back_Bone]
170 1312.175781 -701.934692 0.000954 0.002240 0.002263 -85.612495 1488.125488
171 1312.175781 -701.934692 0.000954 0.002670 0.002247 -85.613632 1488.125488
172 1312.175781 -701.934692 0.000954 0.003100 0.002230 -85.614777 1488.125488
[Head]
170 1406.159424 809.709290 0.001431 -0.045602 10.635036 40.661392 1622.625488
171 1406.159424 809.709290 0.001431 -0.045171 10.311502 39.853172 1622.625488
172 1406.159424 809.709290 0.001431 -0.040111 9.987980 39.045704 1622.625488
[Motor_Bone]
170 1158.364380 -417.834747 0.000477 -0.095385 0.076104 -105.915695 1231.419434
171 1158.364380 -417.834747 0.000477 -0.095385 0.076104 -105.915703 1231.419434
172 1158.364380 -417.834747 0.000477 -0.095385 0.076104 -105.915703 1231.419434
[Ping_Mechanism]
170 1273.099609 -454.954620 -0.229793 0.000103 -0.000053 82.120995 1351.949097
171 1269.919434 -454.095245 -0.210872 0.000103 -0.000053 82.120995 1348.665161
172 1266.739136 -453.235870 -0.191951 0.000103 -0.000053 82.120995 1345.381226
[BN_LookIK]
170 193.241119 1380.371704 -0.002861 0.000000 89.965736 -31.038179 1393.832153
171 193.241119 1380.371704 -0.002861 0.000000 89.965736 -31.038179 1393.832153
172 193.241119 1380.371704 -0.002861 0.000000 89.965736 -31.038179 1393.832153
[bottomMouth]
170 -435.092926 615.759399 -0.000954 -0.000022 0.000016 73.527184 753.966492
171 -435.092926 615.759399 -0.000954 -0.000022 0.000016 73.527184 753.966492
172 -435.092926 615.759399 -0.000954 -0.000022 0.000016 73.527184 753.966492
[L_Mouth01]
170 554.440979 7.658243 838.222046 150.204178 23.759130 109.605339 1005.027161
171 554.440979 7.658243 838.222046 150.204178 23.759130 109.605339 1005.027161
172 554.440979 7.658243 838.222046 150.204178 23.759130 109.605339 1005.027161
[L_mouthFront]
170 551.629089 934.514771 339.150421 0.000081 2.804060 79.119301 1136.941284
171 551.629089 934.514771 339.150421 0.000081 2.804060 79.119301 1136.941284
172 551.629089 934.514771 339.150421 0.000081 2.804060 79.119301 1136.941284
[mouthGun]
170 55.332661 1627.420898 0.000000 0.000023 0.000009 -11.038128 1628.361328
171 55.332661 1627.420898 0.000000 0.000023 0.000009 -11.038128 1628.361328
172 55.332661 1627.420898 0.000000 0.000023 0.000009 -11.038128 1628.361328
[R_Mouth01]
170 554.442383 7.659197 -838.223938 29.795891 -23.759109 109.605331 1005.029541
171 554.442383 7.659197 -838.223938 29.795891 -23.759109 109.605331 1005.029541
172 554.442383 7.659197 -838.223938 29.795891 -23.759109 109.605331 1005.029541
[R_mouthFront]
170 551.629089 934.514282 -339.151367 0.000029 -2.803930 79.119133 1136.941162
171 551.629089 934.514282 -339.151367 0.000029 -2.803930 79.119133 1136.941162
172 551.629089 934.514282 -339.151367 0.000029 -2.803930 79.119133 1136.941162
[TopMouth]
170 461.269867 -56.106091 -0.008583 -0.000059 -0.000268 92.025169 464.669525
171 461.269867 -56.106091 -0.008583 -0.000059 -0.000268 92.025169 464.669525
172 461.269867 -56.106091 -0.008583 -0.000059 -0.000268 92.025169 464.669525
[weapon_bone]
170 -987.239868 1448.372803 0.001431 0.000000 89.965736 -31.038221 1752.833740
171 -987.239868 1448.372803 0.001431 0.000000 89.965736 -31.038221 1752.833740
172 -987.239868 1448.372803 0.001431 0.000000 89.965736 -31.038221 1752.833740
